# xmcd
#
# Track frame offsets:
#	150
#	19197
#	31727
#	45524
#	55778
#	68934
#	81167
#	91693
#	101728
#	117907
#	135011
#	151248
#	163069
#	174191
#	187091
#	198240
#	211011
#	225860
#	241244
#	256218
#
# Disc length: 3616 seconds
#
# Revision: 1
# Processed by: cddbd v1.5.2PL0 Copyright (c) Steve Scherf et al.
# Submitted via: audiograbber 1.83.01
#
DISCID=ec0e1e14
DTITLE=Country énekesek - Örökzöld Countryzene CD3
DYEAR=2007
DGENRE=Country
TTITLE0=John Denver - Rocky Mountain High
TTITLE1=Glen Campbell - By The Time I Get To Phoenix
TTITLE2=Kenny Rogers - You Send Me
TTITLE3=Faron Young - Hello Walls
TTITLE4=Lynn Anderson - Rose Garden
TTITLE5=Merle Haggard - Okie From Muskogee
TTITLE6=Patsy Cline - Lovesick Blues
TTITLE7=Jimmie Rodgers - Honeycomb
TTITLE8=Brenda Lee - You Can Depend On Me
TTITLE9=Charlie Rich - My Elusive Dreams
TTITLE10=Lee Greenwood - You Light Up My Life
TTITLE11=Wanda Jackson - Sweet Dreams of You
TTITLE12=Don Gibson - Oh Lonesone Me
TTITLE13=Brenda Lee - Too Many Rivers
TTITLE14=Conway Twitty - Hello Darlin'
TTITLE15=Billie Jo Spears - What I've Got In Mind
TTITLE16=Roger Miller - Me And Bobby McGee
TTITLE17=Don Williams - I Recall a Gypsy Woman
TTITLE18=Johnny Rodriguez - Desperado
TTITLE19=Roy Clark - Yesterday When I Was Young
EXTD=
EXTT0=
EXTT1=
EXTT2=
EXTT3=
EXTT4=
EXTT5=
EXTT6=
EXTT7=
EXTT8=
EXTT9=
EXTT10=
EXTT11=
EXTT12=
EXTT13=
EXTT14=
EXTT15=
EXTT16=
EXTT17=
EXTT18=
EXTT19=
PLAYORDER=
